<svg width="48" height="48" viewBox="0 0 48 48" fill="none" xmlns="http://www.w3.org/2000/svg">
<path d="M25.2595 18.1102C24.9755 17.7056 24.2616 17.405 23.3285 17.686C22.4717 17.9441 22.0877 19.3152 23.2053 19.8422C23.3807 19.9249 23.83 20.1014 24.508 20.341C26.0253 20.8774 26.0752 22.8702 24.2743 23.0275C23.6743 23.0799 22.8186 23.0593 22.3633 22.494" stroke="white" stroke-width="1.5" stroke-miterlimit="10" stroke-linecap="round" stroke-linejoin="round"/>
<path d="M23.9258 23.0898V23.5542" stroke="white" stroke-width="1.5" stroke-miterlimit="10" stroke-linecap="round" stroke-linejoin="round"/>
<path d="M23.9258 16.9912V17.5432" stroke="white" stroke-width="1.5" stroke-miterlimit="10" stroke-linecap="round" stroke-linejoin="round"/>
<path d="M20.626 27.3369H27.374" stroke="white" stroke-width="1.5" stroke-miterlimit="10" stroke-linecap="round" stroke-linejoin="round"/>
<path d="M20.626 31.0117H27.374" stroke="white" stroke-width="1.5" stroke-miterlimit="10" stroke-linecap="round" stroke-linejoin="round"/>
<path d="M32.1625 27.5795V17.4631C32.1625 16.7172 31.8662 16.0018 31.3388 15.4744L29.6257 13.7613C29.0982 13.2338 28.3829 12.9375 27.6369 12.9375H18.6494C17.0961 12.9375 15.8369 14.1967 15.8369 15.75V32.25C15.8369 33.8033 17.0961 35.0625 18.6494 35.0625H29.35C30.8977 35.0625 32.1534 33.8124 32.1625 32.267" stroke="white" stroke-width="1.5" stroke-miterlimit="10" stroke-linecap="round" stroke-linejoin="round"/>
</svg>
